<svg width="25" height="25" viewBox="0 0 25 25" fill="none" xmlns="http://www.w3.org/2000/svg">
<path d="M20.0323 11.4869H7.50934L10.5049 8.24681C10.6296 8.11646 10.7292 7.96054 10.7976 7.78815C10.8661 7.61575 10.9021 7.43034 10.9036 7.24272C10.9051 7.0551 10.8721 6.86903 10.8064 6.69537C10.7407 6.52172 10.6437 6.36395 10.5211 6.23128C10.3984 6.09861 10.2525 5.99368 10.092 5.92264C9.93144 5.85159 9.75942 5.81584 9.58596 5.81747C9.4125 5.8191 9.24108 5.85808 9.08169 5.93213C8.92231 6.00619 8.77816 6.11384 8.65765 6.24879L3.43214 11.9009C3.31048 12.0321 3.21396 12.1881 3.1481 12.3597C3.08224 12.5314 3.04834 12.7155 3.04834 12.9013C3.04834 13.0872 3.08224 13.2712 3.1481 13.4429C3.21396 13.6145 3.31048 13.7705 3.43214 13.9017L8.65765 19.5538C8.90404 19.8112 9.23403 19.9537 9.57656 19.9504C9.91909 19.9472 10.2467 19.7986 10.489 19.5366C10.7312 19.2746 10.8686 18.9202 10.8715 18.5497C10.8745 18.1792 10.7428 17.8223 10.5049 17.5558L7.50934 14.3129H20.0323C20.3788 14.3129 20.711 14.1641 20.956 13.8991C21.201 13.6341 21.3387 13.2747 21.3387 12.8999C21.3387 12.5251 21.201 12.1657 20.956 11.9007C20.711 11.6357 20.3788 11.4869 20.0323 11.4869Z" fill="#0D073B"/>
</svg>
