<svg width="132" height="164" viewBox="0 0 132 164" fill="none" xmlns="http://www.w3.org/2000/svg">
<path d="M0.666748 139.167V122.833H17.0001V65.6666C17.0001 54.3694 20.4029 44.3653 27.2084 35.6541C34.014 26.8069 42.8612 21.0222 53.7501 18.3V12.5833C53.7501 9.18053 54.907 6.3222 57.2209 4.0083C59.6709 1.55831 62.5973 0.333313 66.0001 0.333313C69.4029 0.333313 72.2612 1.55831 74.5751 4.0083C77.0251 6.3222 78.2501 9.18053 78.2501 12.5833V18.3C89.139 21.0222 97.9862 26.8069 104.792 35.6541C111.597 44.3653 115 54.3694 115 65.6666V122.833H131.333V139.167H0.666748ZM66.0001 163.667C61.5084 163.667 57.6292 162.101 54.3626 158.971C51.232 155.704 49.6667 151.825 49.6667 147.333H82.3334C82.3334 151.825 80.7001 155.704 77.4334 158.971C74.3028 162.101 70.4917 163.667 66.0001 163.667ZM33.3334 122.833H98.6667V65.6666C98.6667 56.6833 95.4681 48.993 89.0709 42.5958C82.6737 36.1986 74.9834 33 66.0001 33C57.0167 33 49.3265 36.1986 42.9292 42.5958C36.532 48.993 33.3334 56.6833 33.3334 65.6666V122.833Z" fill="#0D073B"/>
</svg>
