<svg width="16" height="10" viewBox="0 0 16 10" fill="none" xmlns="http://www.w3.org/2000/svg">
<path d="M8 10C7.72304 10.0005 7.44872 9.9468 7.1928 9.84206C6.93688 9.73732 6.70441 9.58358 6.50875 9.38967L0.617566 3.56181C0.32267 3.27 0.121855 2.89825 0.0405053 2.49354C-0.040844 2.08884 0.000925865 1.66937 0.160534 1.28815C0.320143 0.906928 0.590423 0.58108 0.937207 0.351796C1.28399 0.122512 1.69171 8.8105e-05 2.10882 0H13.8912C14.3083 8.8105e-05 14.716 0.122512 15.0628 0.351796C15.4096 0.58108 15.6799 0.906928 15.8395 1.28815C15.9991 1.66937 16.0408 2.08884 15.9595 2.49354C15.8781 2.89825 15.6773 3.27 15.3824 3.56181L9.49125 9.38967C9.29559 9.58358 9.06312 9.73732 8.8072 9.84206C8.55128 9.9468 8.27696 10.0005 8 10ZM2.10882 2.08659L8 7.91445L13.8912 2.08659H2.10882Z" fill="#0D073B"/>
</svg>
