<svg width="22" height="22" viewBox="0 0 22 22" fill="none" xmlns="http://www.w3.org/2000/svg">
<path d="M9.89088 3.48097H3.37072C2.87664 3.48097 2.40281 3.67596 2.05344 4.02305C1.70408 4.37013 1.50781 4.84088 1.50781 5.33173V18.287C1.50781 18.7779 1.70408 19.2486 2.05344 19.5957C2.40281 19.9428 2.87664 20.1378 3.37072 20.1378H16.411C16.9051 20.1378 17.3789 19.9428 17.7283 19.5957C18.0777 19.2486 18.2739 18.7779 18.2739 18.287V11.8094M16.8768 2.0929C17.2473 1.72476 17.7499 1.51794 18.2739 1.51794C18.798 1.51794 19.3006 1.72476 19.6711 2.0929C20.0417 2.46104 20.2498 2.96034 20.2498 3.48097C20.2498 4.0016 20.0417 4.5009 19.6711 4.86904L10.8223 13.6601L7.09652 14.5855L8.02797 10.884L16.8768 2.0929Z" stroke="#0D073B" stroke-width="2" stroke-linecap="round" stroke-linejoin="round"/>
</svg>
