<svg width="29" height="30" viewBox="0 0 29 30" fill="none" xmlns="http://www.w3.org/2000/svg">
<path d="M24.7709 14.1541V9.00667C24.7709 4.13708 23.635 2.91666 19.0675 2.91666H9.93252C5.36502 2.91666 4.22919 4.13708 4.22919 9.00667V22.6125C4.22919 25.8266 5.99337 26.5879 8.13212 24.2921L8.14418 24.28C9.13501 23.2287 10.6454 23.3133 11.5033 24.4612L12.7238 26.0925" stroke="#0D073B" stroke-opacity="0.7" stroke-width="2.5" stroke-linecap="round" stroke-linejoin="round"/>
<path d="M9.66669 8.95831H19.3334" stroke="#0D073B" stroke-opacity="0.7" stroke-width="1.5" stroke-linecap="round" stroke-linejoin="round"/>
<path d="M10.875 13.7917H18.125" stroke="#0D073B" stroke-opacity="0.7" stroke-width="1.5" stroke-linecap="round" stroke-linejoin="round"/>
<path d="M22.0049 18.3474L17.7275 22.6249C17.5583 22.7941 17.4012 23.1083 17.3649 23.3378L17.1354 24.9691C17.0508 25.5612 17.4616 25.972 18.0537 25.8874L19.685 25.6579C19.9145 25.6216 20.2408 25.4645 20.3979 25.2953L24.6754 21.0179C25.4125 20.2808 25.7629 19.4229 24.6754 18.3354C23.6 17.2599 22.742 17.6103 22.0049 18.3474Z" stroke="#0D073B" stroke-opacity="0.7" stroke-width="1.5" stroke-miterlimit="10" stroke-linecap="round" stroke-linejoin="round"/>
<path d="M21.3865 18.9637C21.749 20.2687 22.764 21.2837 24.069 21.6462" stroke="#0D073B" stroke-opacity="0.7" stroke-width="1.5" stroke-miterlimit="10" stroke-linecap="round" stroke-linejoin="round"/>
</svg>
