<svg width="33" height="34" viewBox="0 0 33 34" fill="none" xmlns="http://www.w3.org/2000/svg">
<path d="M28.0242 15.4531L25.7812 13.2117V7.71875C25.7812 6.86797 25.0852 6.17188 24.2344 6.17188H22.6875C21.8367 6.17188 21.1406 6.86797 21.1406 7.71875V8.57417L18.0469 5.48352C17.6246 5.08442 17.2379 4.625 16.5 4.625C15.7621 4.625 15.3754 5.08442 14.9531 5.48352L4.97578 15.4531C4.49316 15.9559 4.125 16.3225 4.125 17C4.125 17.8709 4.79325 18.5469 5.67188 18.5469H7.21875V27.8281C7.21875 28.6789 7.91484 29.375 8.76562 29.375H11.8594C12.7137 29.375 13.4062 28.6824 13.4062 27.8281V21.6406C13.4062 20.7898 14.1023 20.0938 14.9531 20.0938H18.0469C18.8977 20.0938 19.5938 20.7898 19.5938 21.6406V27.8281C19.5938 28.6824 19.5129 29.375 20.3672 29.375H24.2344C25.0852 29.375 25.7812 28.6789 25.7812 27.8281V18.5469H27.3281C28.2068 18.5469 28.875 17.8709 28.875 17C28.875 16.3225 28.5068 15.9559 28.0242 15.4531Z" stroke="#0D073B" stroke-opacity="0.7" stroke-width="2.5" stroke-linejoin="round"/>
</svg>
