<svg width="114" height="30" viewBox="0 0 114 30" fill="none" xmlns="http://www.w3.org/2000/svg">
<path d="M9.12891 17.3203V29H0.378906V1.38281H9.12891V13.5508L15.3789 1.38281H25.5938L17.6836 14.625L25.5938 29H15.3789L9.75391 15.9922L9.12891 17.3203ZM36.8008 29V19.5078L28.2656 1.38281H38.3047L41.6641 11.3242L44.75 1.38281H53.2656L45.5508 19.2539V29H36.8008ZM57.207 15.25C57.207 13.0234 57.6042 11.0247 58.3984 9.25391C59.2057 7.47005 60.293 5.95964 61.6602 4.72266C63.0273 3.47266 64.6159 2.51562 66.4258 1.85156C68.2357 1.1875 70.1562 0.855469 72.1875 0.855469C73.6068 0.855469 75.0521 0.992188 76.5234 1.26562C77.9948 1.53906 79.4596 2.03385 80.918 2.75L79.707 9C78.5612 8.375 77.4284 7.90625 76.3086 7.59375C75.1888 7.28125 74.1602 7.125 73.2227 7.125C72.0898 7.125 71.0742 7.3138 70.1758 7.69141C69.2773 8.05599 68.5156 8.58984 67.8906 9.29297C67.2656 9.99609 66.7839 10.849 66.4453 11.8516C66.1198 12.8542 65.957 13.987 65.957 15.25C65.957 16.513 66.1198 17.6458 66.4453 18.6484C66.7839 19.651 67.2656 20.5039 67.8906 21.207C68.5156 21.9102 69.2773 22.4505 70.1758 22.8281C71.0742 23.1927 72.0898 23.375 73.2227 23.375C74.1602 23.375 75.1888 23.2188 76.3086 22.9062C77.4284 22.5938 78.5612 22.125 79.707 21.5L80.918 27.75C79.4596 28.4531 77.9948 28.9284 76.5234 29.1758C75.0521 29.4362 73.6068 29.5664 72.1875 29.5664C70.1562 29.5664 68.2357 29.2409 66.4258 28.5898C64.6159 27.9258 63.0273 26.9818 61.6602 25.7578C60.293 24.5208 59.2057 23.0169 58.3984 21.2461C57.6042 19.4753 57.207 17.4766 57.207 15.25ZM87.4961 1.38281H98.1211L102.145 21.9883L106.871 1.38281H113.746L106.266 29H94.3711L87.4961 1.38281Z" fill="#0D073B" fill-opacity="0.8"/>
</svg>
