<svg width="85" height="84" viewBox="0 0 85 84" fill="none" xmlns="http://www.w3.org/2000/svg">
<path d="M42.5001 0.333344C34.2592 0.333344 26.2034 2.77705 19.3513 7.35544C12.4993 11.9338 7.15873 18.4413 4.00508 26.0549C0.851428 33.6685 0.0262885 42.0462 1.63401 50.1288C3.24172 58.2113 7.21009 65.6356 13.0373 71.4628C18.8645 77.29 26.2888 81.2583 34.3713 82.8661C42.4538 84.4738 50.8316 83.6486 58.4452 80.495C66.0588 77.3413 72.5662 72.0008 77.1446 65.1488C81.723 58.2967 84.1667 50.2409 84.1667 42C84.1546 30.953 79.7608 20.362 71.9494 12.5506C64.1381 4.73924 53.547 0.345475 42.5001 0.333344ZM42.5001 21.1667C44.9723 21.1667 47.3891 21.8998 49.4447 23.2733C51.5003 24.6468 53.1025 26.5991 54.0486 28.8831C54.9947 31.1672 55.2422 33.6805 54.7599 36.1053C54.2776 38.5301 53.0871 40.7574 51.3389 42.5055C49.5907 44.2537 47.3635 45.4442 44.9387 45.9265C42.5139 46.4088 40.0006 46.1613 37.7165 45.2152C35.4324 44.2691 33.4802 42.6669 32.1067 40.6113C30.7332 38.5557 30.0001 36.1389 30.0001 33.6667C30.0001 30.3515 31.317 27.172 33.6612 24.8278C36.0054 22.4836 39.1849 21.1667 42.5001 21.1667ZM42.5001 75.3333C35.1634 75.3414 27.9875 73.1847 21.8709 69.1333C22.3543 65.1045 24.2956 61.3919 27.3283 58.6961C30.3611 56.0003 34.2757 54.5077 38.3334 54.5H46.6667C50.7244 54.5077 54.639 56.0003 57.6718 58.6961C60.7046 61.3919 62.6458 65.1045 63.1292 69.1333C57.0126 73.1847 49.8367 75.3414 42.5001 75.3333Z" fill="#3E3963"/>
</svg>
