<svg width="33" height="34" viewBox="0 0 33 34" fill="none" xmlns="http://www.w3.org/2000/svg">
<path d="M16.72 15.4462C16.5825 15.4325 16.4175 15.4325 16.2663 15.4462C12.9938 15.3362 10.395 12.655 10.395 9.355C10.395 5.98625 13.1175 3.25 16.5 3.25C19.8688 3.25 22.605 5.98625 22.605 9.355C22.5913 12.655 19.9925 15.3362 16.72 15.4462Z" stroke="#0D073B" stroke-opacity="0.7" stroke-width="2.5" stroke-linecap="round" stroke-linejoin="round"/>
<path d="M9.84499 20.52C6.51749 22.7475 6.51749 26.3775 9.84499 28.5912C13.6262 31.1212 19.8275 31.1212 23.6087 28.5912C26.9362 26.3637 26.9362 22.7337 23.6087 20.52C19.8412 18.0038 13.64 18.0038 9.84499 20.52Z" stroke="#0D073B" stroke-opacity="0.7" stroke-width="2.5" stroke-linecap="round" stroke-linejoin="round"/>
</svg>
