<svg width="33" height="34" viewBox="0 0 33 34" fill="none" xmlns="http://www.w3.org/2000/svg">
<path d="M23.7854 6.78239L23.7861 6.78278C24.4315 7.15157 24.6596 7.98022 24.2834 8.63855C23.5328 9.94888 23.313 11.4254 24.0239 12.6537C24.7352 13.883 26.126 14.4275 27.6375 14.4275C28.3827 14.4275 29.0038 15.0436 29.0138 15.797V18.21C29.0138 18.9591 28.3952 19.5725 27.6513 19.5725C26.1406 19.5725 24.7479 20.1166 24.0382 21.3482C23.3285 22.5798 23.5557 24.0581 24.3145 25.3676C24.6839 26.0081 24.4601 26.8477 23.8136 27.2172L23.8129 27.2176L21.4342 28.5788L21.425 28.5841L21.4159 28.5895C20.9485 28.8676 20.3063 28.7178 19.9974 28.2048L19.8505 27.9512L19.8502 27.9506C19.0915 26.6416 17.9223 25.7084 16.5017 25.7084C15.0801 25.7084 13.9141 26.6426 13.162 27.9532C13.1615 27.9541 13.161 27.955 13.1605 27.9558L13.0164 28.2048C12.7074 28.7178 12.0653 28.8676 11.5979 28.5895L11.5888 28.5841L11.5796 28.5788L9.20085 27.2176L9.20017 27.2172C8.55563 26.8489 8.32722 26.0219 8.70132 25.364C9.4585 24.0554 9.68464 22.5787 8.97554 21.3482C8.26581 20.1166 6.87319 19.5725 5.3625 19.5725C4.61338 19.5725 4 18.9539 4 18.21V15.79C4 15.0409 4.61857 14.4275 5.3625 14.4275C6.87301 14.4275 8.26496 13.8835 8.97488 12.6546C9.68477 11.4257 9.45895 9.95169 8.70062 8.64847C8.32595 7.98798 8.55874 7.14931 9.20017 6.78278L9.20085 6.78239L11.5796 5.42114L11.5888 5.41589L11.5979 5.41048C12.0748 5.12674 12.703 5.29337 12.9801 5.77992L12.9801 5.77993L12.9845 5.78752L13.1357 6.04877L13.136 6.04931C13.8948 7.35837 15.0639 8.29154 16.4845 8.29154C17.9062 8.29154 19.0722 7.35722 19.8243 6.04652C19.8248 6.04573 19.8252 6.04493 19.8257 6.04413L19.9699 5.79513C20.2788 5.28214 20.921 5.13239 21.3884 5.41048L21.3975 5.41589L21.4067 5.42114L23.7854 6.78239ZM10.7812 17C10.7812 20.1516 13.3484 22.7187 16.5 22.7187C19.6516 22.7187 22.2188 20.1516 22.2188 17C22.2188 13.8484 19.6516 11.2812 16.5 11.2812C13.3484 11.2812 10.7812 13.8484 10.7812 17Z" stroke="#0D073B" stroke-opacity="0.7" stroke-width="2.5"/>
</svg>
