<svg width="134" height="130" viewBox="0 0 134 130" fill="none" xmlns="http://www.w3.org/2000/svg">
<rect width="134" height="129.939" rx="64.9697" fill="#0EA820"/>
<path d="M54.2942 97.4545C52.8362 97.4606 51.4339 96.8629 50.387 95.7893L24.0193 68.7215C23.4937 68.1787 23.0744 67.5317 22.7852 66.8175C22.496 66.1032 22.3426 65.3357 22.3338 64.5587C22.316 62.9896 22.8881 61.4772 23.9244 60.3543C24.9606 59.2315 26.3761 58.5901 27.8593 58.5712C29.3426 58.5524 30.7722 59.1577 31.8336 60.254L54.3165 83.3242L102.162 34.1663C103.225 33.0701 104.656 32.4654 106.141 32.4853C107.625 32.5053 109.041 33.1482 110.077 34.2726C111.114 35.397 111.685 36.9109 111.666 38.4812C111.647 40.0514 111.04 41.5494 109.977 42.6457L58.2013 95.7893C57.1545 96.8629 55.7522 97.4606 54.2942 97.4545Z" fill="white"/>
</svg>
